<?xml version="1.0" encoding="UTF-8"?>
<svg id="Layer_2" data-name="Layer 2" xmlns="http://www.w3.org/2000/svg" viewBox="0 0 106.98 106.97">
  <defs>
    <style>
      .cls-1 {
        fill: #fe4a23;
        stroke-width: 0px;
      }
    </style>
  </defs>
  <g id="Design">
    <g>
      <path class="cls-1" d="M106.98,35.65h0c0,6.49-1.72,12.56-4.74,17.79-6.16,10.68-17.7,17.88-30.92,17.88v-17.88c9.83,0,17.79-7.96,17.79-17.78h0c-.01-9.84-7.96-17.79-17.79-17.79s-17.77,7.95-17.78,17.78h-17.88c0-13.22,7.19-24.75,17.87-30.91,5.24-3.01,11.32-4.74,17.79-4.74,19.7,0,35.65,15.95,35.66,35.65Z"/>
      <path class="cls-1" d="M71.32,71.32c0,13.18-7.15,24.69-17.79,30.86-5.25,3.05-11.36,4.79-17.87,4.79C15.97,106.97.01,91.02,0,71.32h0c0-6.52,1.74-12.62,4.8-17.88,6.17-10.64,17.68-17.79,30.86-17.79v17.81c-9.86.01-17.85,7.99-17.85,17.85h0c.01,9.86,8,17.85,17.85,17.86h.01c9.86,0,17.84-7.99,17.85-17.85h17.8Z"/>
      <rect class="cls-1" x="53.53" y="35.65" width="17.79" height="17.79"/>
      <rect class="cls-1" x="35.66" y="53.44" width="17.87" height="17.88"/>
    </g>
  </g>
</svg>