<?xml version="1.0" encoding="UTF-8"?>
<svg id="Layer_2" data-name="Layer 2" xmlns="http://www.w3.org/2000/svg" viewBox="0 0 478.81 106.97">
  <defs>
    <style>
      .cls-1 {
        fill: #fff;
        stroke-width: 0px;
      }
    </style>
  </defs>
  <g id="Design">
    <g>
      <g>
        <path class="cls-1" d="M106.98,35.65h0c0,6.49-1.72,12.56-4.74,17.79-6.16,10.68-17.7,17.88-30.92,17.88v-17.88c9.83,0,17.79-7.96,17.79-17.78h0c-.01-9.84-7.96-17.79-17.79-17.79s-17.77,7.95-17.78,17.78h-17.88c0-13.22,7.19-24.75,17.87-30.91,5.24-3.01,11.32-4.74,17.79-4.74,19.7,0,35.65,15.95,35.66,35.65Z"/>
        <path class="cls-1" d="M71.32,71.32c0,13.18-7.15,24.69-17.79,30.86-5.25,3.05-11.36,4.79-17.87,4.79C15.97,106.97.01,91.02,0,71.32h0c0-6.52,1.74-12.62,4.8-17.88,6.17-10.64,17.68-17.79,30.86-17.79v17.81c-9.86.01-17.85,7.99-17.85,17.85h0c.01,9.86,8,17.85,17.85,17.86h.01c9.86,0,17.84-7.99,17.85-17.85h17.8Z"/>
        <rect class="cls-1" x="53.53" y="35.65" width="17.79" height="17.79"/>
        <rect class="cls-1" x="35.66" y="53.44" width="17.87" height="17.88"/>
      </g>
      <g>
        <path class="cls-1" d="M137.22,84.43l-.06-61.4h11.87l3.18,5.46c2.09-2.21,4.58-3.96,7.49-5.25,2.91-1.29,6.04-1.93,9.39-1.93,2.25,0,4.5.33,6.75.98l-5.89,15.11c-1.56-.61-3.11-.92-4.67-.92-2.42,0-4.62.58-6.6,1.75-1.99,1.17-3.56,2.74-4.73,4.73-1.17,1.99-1.75,4.19-1.75,6.6v34.88h-14.98Z"/>
        <path class="cls-1" d="M232.77,23.03h12.95v61.4h-13.97l-1.69-7.61c-1.68,2.74-3.9,4.96-6.66,6.66s-6.03,2.55-9.79,2.55c-4.54,0-8.8-.86-12.77-2.58-3.97-1.72-7.46-4.09-10.47-7.12-3.01-3.03-5.36-6.53-7.06-10.5-1.7-3.97-2.55-8.23-2.55-12.77s.81-8.49,2.43-12.34c1.62-3.85,3.88-7.22,6.79-10.13,2.91-2.91,6.26-5.18,10.07-6.82,3.81-1.64,7.9-2.46,12.28-2.46,4.05,0,7.69.9,10.9,2.7,3.21,1.8,5.95,4.09,8.2,6.88l1.36-7.86ZM213.24,71.6c3.19,0,6.02-.8,8.47-2.4,2.46-1.6,4.38-3.75,5.77-6.48,1.39-2.72,2.09-5.72,2.09-9s-.7-6.33-2.09-9.06c-1.39-2.72-3.33-4.88-5.8-6.48-2.48-1.6-5.29-2.4-8.44-2.4s-6.03.81-8.63,2.43c-2.6,1.62-4.67,3.78-6.2,6.48-1.54,2.7-2.3,5.71-2.3,9.03s.78,6.33,2.33,9.03c1.56,2.7,3.63,4.85,6.23,6.45,2.6,1.6,5.45,2.4,8.57,2.4Z"/>
        <path class="cls-1" d="M258,84.43V23.03h12.3l2.68,5.46c2.09-2.21,4.58-3.96,7.49-5.25s6.04-1.93,9.4-1.93c4.26,0,8.18,1,11.76,3.01,3.58,2.01,6.44,4.69,8.57,8.04,2.17-3.36,5.04-6.04,8.6-8.04,3.56-2.01,7.47-3.01,11.73-3.01,4.5,0,8.59,1.1,12.25,3.29,3.66,2.19,6.59,5.12,8.78,8.78,2.19,3.66,3.29,7.75,3.29,12.25v38.81h-14.98v-34.82c0-2.37-.58-4.55-1.75-6.54-1.17-1.98-2.72-3.58-4.67-4.79-1.94-1.21-4.12-1.81-6.54-1.81s-4.6.58-6.54,1.75c-1.94,1.17-3.51,2.73-4.7,4.7-1.19,1.96-1.78,4.2-1.78,6.69v34.82h-14.98v-34.82c0-2.5-.57-4.73-1.72-6.69-1.15-1.96-2.7-3.53-4.67-4.7-1.96-1.17-4.16-1.75-6.57-1.75s-4.54.6-6.51,1.81c-1.97,1.21-3.53,2.8-4.7,4.79-1.17,1.99-1.75,4.17-1.75,6.54v34.82h-14.98Z"/>
        <path class="cls-1" d="M394.13,86.03c-5.65,0-10.8-1.45-15.44-4.36-4.65-2.91-8.35-6.81-11.11-11.7-2.76-4.89-4.14-10.3-4.14-16.24,0-4.5.8-8.71,2.39-12.62,1.6-3.91,3.8-7.35,6.6-10.32,2.8-2.97,6.07-5.29,9.79-6.97,3.72-1.68,7.7-2.52,11.91-2.52,5.65,0,10.8,1.45,15.44,4.36,4.65,2.91,8.35,6.82,11.11,11.73,2.76,4.91,4.14,10.36,4.14,16.33,0,4.46-.8,8.64-2.39,12.53-1.6,3.89-3.8,7.32-6.6,10.29-2.8,2.97-6.06,5.29-9.76,6.97-3.71,1.68-7.69,2.52-11.94,2.52ZM394.13,71.05c2.99,0,5.67-.8,8.04-2.39,2.37-1.6,4.25-3.71,5.62-6.33,1.37-2.62,2.06-5.49,2.06-8.6s-.71-6.11-2.12-8.75c-1.41-2.64-3.32-4.75-5.71-6.32-2.39-1.58-5.03-2.36-7.89-2.36s-5.61.8-7.98,2.4c-2.37,1.6-4.26,3.73-5.65,6.39-1.39,2.66-2.09,5.55-2.09,8.66s.72,6.16,2.15,8.78c1.43,2.62,3.35,4.7,5.74,6.23,2.4,1.54,5,2.3,7.83,2.3Z"/>
        <path class="cls-1" d="M454,85.54c-3.19-.21-6.27-.85-9.24-1.93-2.97-1.08-5.6-2.57-7.89-4.45-2.29-1.88-4.05-4.13-5.28-6.75l12.65-5.4c.49.82,1.29,1.69,2.39,2.61s2.42,1.69,3.96,2.3,3.22.92,5.07.92c1.55,0,3.04-.21,4.45-.64,1.41-.43,2.56-1.09,3.44-2,.88-.9,1.32-2.07,1.32-3.5,0-1.51-.52-2.69-1.57-3.53-1.04-.84-2.35-1.47-3.93-1.9-1.58-.43-3.1-.83-4.57-1.2-3.89-.78-7.5-1.99-10.84-3.62-3.34-1.64-6.02-3.76-8.04-6.36-2.03-2.6-3.04-5.74-3.04-9.43,0-4.05,1.08-7.55,3.22-10.5,2.15-2.95,4.95-5.22,8.41-6.82,3.46-1.6,7.19-2.4,11.21-2.4,4.87,0,9.34,1.01,13.42,3.04s7.3,4.88,9.67,8.57l-11.85,7c-.57-.98-1.37-1.89-2.39-2.73-1.02-.84-2.19-1.54-3.5-2.09-1.31-.55-2.68-.87-4.11-.95-1.84-.08-3.52.08-5.04.49-1.51.41-2.73,1.11-3.65,2.09s-1.38,2.29-1.38,3.93.61,2.71,1.84,3.47c1.23.76,2.71,1.34,4.45,1.75,1.74.41,3.41.86,5,1.35,3.6,1.19,6.99,2.64,10.16,4.36,3.17,1.72,5.72,3.83,7.64,6.33,1.92,2.5,2.84,5.49,2.76,8.96,0,3.97-1.19,7.44-3.56,10.41-2.38,2.97-5.43,5.23-9.18,6.78-3.75,1.56-7.75,2.17-12,1.84Z"/>
      </g>
    </g>
  </g>
</svg>